<?xml version="1.0" standalone="no"?>
<!DOCTYPE svg PUBLIC "-//W3C//DTD SVG 20010904//EN"
 "http://www.w3.org/TR/2001/REC-SVG-20010904/DTD/svg10.dtd">
<svg version="1.0" xmlns="http://www.w3.org/2000/svg"
 width="156.000000pt" height="156.000000pt" viewBox="0 0 156.000000 156.000000"
 preserveAspectRatio="xMidYMid meet">
<metadata>
Created by potrace 1.11, written by Peter Selinger 2001-2013
</metadata>
<g transform="translate(0.000000,156.000000) scale(0.100000,-0.100000)"
fill="#000000" stroke="none">
<path d="M561 1470 l-34 -5 -84 -220 c-46 -121 -101 -265 -122 -320 -22 -55
-76 -197 -121 -315 -45 -118 -84 -218 -87 -222 -2 -5 31 -8 75 -8 l79 0 49
138 49 137 249 0 249 0 47 -135 47 -135 77 -3 c42 -2 76 -1 76 2 0 3 -40 110
-89 238 -49 128 -141 369 -204 536 -63 167 -117 305 -119 307 -6 6 -104 10
-137 5z m158 -429 c50 -135 91 -247 91 -251 0 -4 -90 -7 -199 -7 -199 0 -199
0 -190 21 10 26 99 267 103 281 2 6 6 17 9 25 4 8 20 53 37 100 17 47 33 92
36 100 7 18 -4 44 113 -269z"/>
<path d="M1287 1472 c-16 -3 -17 -49 -18 -555 0 -304 -3 -563 -5 -577 -15 -81
-74 -130 -163 -133 -57 -2 -56 -1 -52 -103 l1 -26 78 5 c166 10 252 83 282
237 12 58 18 1136 7 1146 -7 7 -104 11 -130 6z"/>
</g>
</svg>
